<svg width="80" height="70" viewBox="0 0 80 70" fill="none" xmlns="http://www.w3.org/2000/svg">
<path d="M3.11362 41.8675C3.07239 41.785 3.03115 41.7026 3.03115 41.6613C2.49513 40.3831 2.00034 38.8987 2.08281 37.4968C3.27855 38.5689 4.68047 39.3523 6.16485 39.8059C7.40183 40.1357 8.72126 40.2594 10.0407 39.9708C10.2881 39.9295 10.4943 39.8471 10.7417 39.8059C13.0919 39.0224 14.5763 36.6722 15.6071 34.3219C16.0194 33.4148 16.3493 32.5489 16.6792 31.7242C17.0503 30.8171 17.4214 29.8688 17.7512 28.9204C18.9057 25.9929 20.1015 23.1066 21.8333 20.509C24.3897 16.5919 28.2655 14.5715 32.9248 14.489C33.5845 14.489 33.9144 13.9942 33.9144 13.4994C33.9556 12.9634 33.6258 12.4274 32.9248 12.4274C25.2143 12.5098 20.5963 17.4165 17.545 24.055C16.6379 26.0754 15.8545 28.1782 15.0711 30.2399C14.5351 31.6006 13.9578 32.9612 13.2981 34.2807C12.3497 36.1361 10.9066 37.8679 8.72125 38.0741C8.14399 38.1153 7.52552 38.0741 6.90703 37.9091C5.13403 37.4556 3.44348 36.2598 2.41266 34.8992C2.00034 34.3631 1.01076 34.1157 0.639663 34.8992C-0.597316 37.538 0.144861 40.3419 1.29938 42.8571C1.588 43.4755 2.20651 43.5168 2.66007 43.1869C3.11363 42.9808 3.40225 42.4447 3.11362 41.8675Z" fill="#333333"/>
<path d="M36.5531 14.9013C37.419 15.1075 38.2848 15.3136 39.1095 15.6023C39.9342 15.8909 40.264 15.8084 40.9237 15.6023C41.0887 15.561 41.2536 15.4786 41.4598 15.3961C41.6659 15.3136 41.9133 15.2724 42.1195 15.1899C43.8925 14.6951 45.7892 14.489 47.6447 14.5302C51.2731 14.5715 54.4481 16.1795 56.7983 18.8184C57.0457 19.107 57.3343 19.4369 57.5817 19.7667C57.9528 20.2615 58.5713 20.3028 59.0249 20.0554C59.4784 19.808 59.7671 19.272 59.3547 18.7359C57.0457 15.6847 54.1594 13.5819 50.366 12.7984C48.3456 12.3861 46.2015 12.3861 44.1399 12.716C43.0266 12.8809 41.9958 13.1283 40.9237 13.4582C39.6043 13.8705 38.4086 13.252 37.0891 12.9634C36.4294 12.7984 35.9346 13.2932 35.8521 13.788C35.7284 14.2003 35.9346 14.7364 36.5531 14.9013Z" fill="#333333"/>
<path d="M58.9013 21.746C61.0042 25.4569 62.3236 29.4977 63.9729 33.3736C65.2099 36.2598 66.818 38.94 69.9517 39.9708C70.6526 40.1769 71.1474 39.6822 71.1886 39.1049C71.2299 38.6513 71.0237 38.1565 70.4877 37.9916C70.0754 37.8679 69.663 37.6618 69.2919 37.4556C67.0241 36.0537 66.0346 33.1262 65.0862 30.7347C64.9213 30.2811 64.7151 29.8276 64.5502 29.374C63.3957 26.4465 62.2412 23.4777 60.6743 20.7152C60.3445 20.1379 59.726 20.0966 59.2724 20.3853C58.8601 20.6739 58.5715 21.2099 58.9013 21.746Z" fill="#333333"/>
<path d="M79.312 34.9404C78.9409 34.157 77.9513 34.4044 77.539 34.9404C76.4669 36.3423 74.9825 37.2494 73.3332 37.7854C72.756 37.9916 72.5498 38.5276 72.6323 39.0224C72.6323 39.0637 72.6735 39.1461 72.6735 39.1874C72.8384 39.6409 73.2508 40.012 73.8692 39.8059C75.4361 39.2698 76.7968 38.4864 77.9513 37.4556C78.5285 41.249 74.9413 45.4135 71.6839 46.6092C67.9318 47.9699 63.1488 46.733 59.9739 44.4239C59.8502 44.3415 59.7265 44.259 59.6028 44.1353C59.108 43.7642 58.5307 43.8879 58.1596 44.2178C57.7473 44.5889 57.6236 45.1661 58.1596 45.5784C62.4066 48.9183 68.4265 50.2377 73.5394 48.0524C78.0338 46.1145 81.5385 39.5997 79.312 34.9404Z" fill="#333333"/>
<path d="M57.2525 41.5376C56.5515 40.548 55.8918 39.4759 55.3145 38.4039C53.1704 34.5693 51.15 31.1882 47.4803 28.8792C47.2329 28.7142 46.9443 28.5493 46.6969 28.3844C44.7177 27.2711 42.4912 26.5289 40.3059 25.9104C39.5224 25.663 38.3679 26.3227 37.667 26.5701C36.43 26.9825 35.193 27.5185 33.9973 28.0545C33.5849 28.2607 33.42 28.5905 33.4612 28.9616C33.4612 29.1266 33.5437 29.2915 33.6262 29.4152C33.9148 29.8275 34.4508 30.1161 35.0281 29.8275C35.2342 29.745 35.4404 29.6213 35.6466 29.5389C37.2546 28.7555 39.3163 27.7659 40.9656 28.2607C42.7798 28.8379 44.5116 29.5389 46.1609 30.4872C49.2533 32.219 51.0676 35.1053 52.7169 38.1153C52.9643 38.5688 53.2117 39.0224 53.4591 39.476C54.0775 40.548 54.696 41.6201 55.397 42.6096C55.7681 43.1457 56.4278 43.1457 56.8814 42.8983C57.3762 42.5684 57.6236 42.0736 57.2525 41.5376Z" fill="#333333"/>
<path d="M30.9462 29.9512C29.9153 30.7347 29.0494 31.683 28.3073 32.6726C26.1632 35.4352 24.7613 38.775 22.6996 41.6613C19.1948 46.568 11.608 48.7533 6.33026 45.5784C6.16533 45.496 6.00039 45.3723 5.83546 45.2898C5.34067 44.9599 4.84589 45.1249 4.55726 45.4959C4.55726 45.4959 4.55726 45.4959 4.55726 45.5372C4.26863 45.9907 4.22739 46.6505 4.80464 47.0628C9.75256 50.4851 17.1744 49.4955 21.71 45.7021C26.4106 41.785 27.6063 35.229 32.3893 31.4356C32.8841 31.0233 32.8016 30.4873 32.4718 30.1162C32.1007 29.7039 31.4822 29.5389 30.9462 29.9512Z" fill="#333333"/>
<path d="M12.7204 43.0632C15.1532 42.3622 16.7612 40.4243 17.8745 38.2802C18.493 37.0845 16.72 36.0537 16.1015 37.2494C15.6067 38.1978 15.0295 39.1049 14.2873 39.8058C13.71 40.3831 13.0091 40.8366 12.1432 41.084C11.4422 41.2902 11.2773 41.9912 11.5247 42.486C11.7309 42.9395 12.1432 43.2281 12.7204 43.0632Z" fill="#333333"/>
<path d="M17.091 34.9816C16.5962 36.2186 18.5753 36.7546 19.0701 35.5176C19.235 35.1053 19.4 34.693 19.5649 34.2806C20.1422 32.755 20.7606 31.2294 21.3791 29.745C21.7502 28.8791 22.1213 28.0545 22.4924 27.1886C23.0697 25.9929 21.2967 24.962 20.7194 26.1578C20.3071 27.0649 19.8948 27.972 19.5237 28.8792C18.7815 30.6522 18.0805 32.4664 17.3796 34.2394C17.2559 34.5693 17.1734 34.7754 17.091 34.9816Z" fill="#333333"/>
<path d="M33.5023 17.7464C34.8217 17.5402 34.2445 15.5611 32.9663 15.7672C28.2245 16.5094 24.8022 19.3545 22.3282 23.3128C21.6273 24.4261 23.4003 25.4569 24.1012 24.3436C24.3486 23.9313 24.6373 23.519 24.9259 23.1479C25.2558 22.7355 25.5856 22.3232 25.9155 21.9109C27.8946 19.6843 30.3274 18.2 33.5023 17.7464Z" fill="#333333"/>
<path d="M24.554 32.6313C25.7085 30.1574 27.028 27.7246 28.9247 25.7455C29.8318 24.7971 28.3886 23.3127 27.4815 24.3023C25.4611 26.4464 24.018 28.9616 22.781 31.6005C22.2038 32.7963 24.018 33.8271 24.554 32.6313Z" fill="#333333"/>
<path d="M35.3986 20.2615C34.0792 20.4677 32.801 20.8388 31.6052 21.3748C31.028 21.6222 30.4507 21.9109 29.9147 22.2819C29.4611 22.5706 29.3374 23.0654 29.5024 23.4777C29.7085 24.0549 30.327 24.4673 30.9455 24.0549C32.4711 23.0654 34.1204 22.5293 35.9347 22.2407H35.9759C37.1304 22.0345 36.7593 20.3852 35.6873 20.2615C35.6048 20.2615 35.5223 20.2615 35.3986 20.2615Z" fill="#333333"/>
<path d="M68.3027 40.9603C68.179 40.8779 68.0553 40.7954 67.8904 40.7542C67.3956 40.5892 66.942 40.3831 66.5297 40.0945C64.633 38.8163 63.4785 36.3835 62.5714 33.992C62.0353 32.5489 61.5818 31.147 61.1282 29.9925C60.6334 28.7555 58.6543 29.2915 59.1491 30.5285C60.6747 34.4044 61.9529 39.7234 65.7463 41.9912C66.2411 42.2798 66.7771 42.5272 67.3543 42.7333C68.4676 43.1044 69.0449 41.6201 68.3027 40.9603Z" fill="#333333"/>
<path d="M59.602 26.3227C58.365 23.6839 56.8806 21.1687 54.7778 19.107C53.8294 18.1587 52.3863 19.6431 53.3346 20.5502C55.3138 22.4881 56.6332 24.8384 57.829 27.3123C58.365 28.5493 60.138 27.5185 59.602 26.3227Z" fill="#333333"/>
<path d="M52.4277 17.2928C50.8196 16.3032 49.0466 15.7259 47.1499 15.4373C45.8305 15.2311 45.2944 17.2516 46.6139 17.4165C47.6447 17.5814 48.6343 17.8288 49.5414 18.1587C50.1599 18.4061 50.7784 18.6947 51.3556 19.0658C52.1391 19.5606 52.8813 18.8184 52.8813 18.1174C52.9225 17.7876 52.7575 17.4989 52.4277 17.2928Z" fill="#333333"/>
<path d="M55.4795 27.6834C54.8197 26.5289 53.0055 27.5597 53.7065 28.7142C54.4899 29.9925 55.1496 31.3531 55.7681 32.7138C56.3041 33.9096 58.0771 32.8788 57.5411 31.683C56.9226 30.3223 56.2216 28.9616 55.4795 27.6834Z" fill="#333333"/>
<path d="M53.3764 24.7559C51.0674 22.1583 48.1811 20.4677 44.7175 19.9317C43.3981 19.7256 42.8621 21.7047 44.1815 21.9109C47.3152 22.4057 49.8304 23.8076 51.9333 26.1991C52.7991 27.2299 54.2423 25.7455 53.3764 24.7559Z" fill="#333333"/>
<path d="M17.3797 0.304968C16.9261 0.758527 16.4726 1.21207 15.9778 1.70686C15.5242 1.2533 15.0706 0.799759 14.5758 0.304968C13.6275 -0.643383 12.1844 0.840992 13.1327 1.74811C13.5863 2.20167 14.0398 2.65521 14.5346 3.15C14.0811 3.60356 13.6275 4.05713 13.1327 4.55193C12.1844 5.50028 13.6687 6.94342 14.5758 5.99507C15.0294 5.54151 15.483 5.08794 15.9778 4.59315C16.4313 5.04671 16.8849 5.50028 17.3797 5.99507C18.328 6.94342 19.7712 5.45904 18.8228 4.55193C18.3692 4.09837 17.9157 3.6448 17.4209 3.15C17.8745 2.69645 18.328 2.2429 18.8228 1.74811C19.7712 0.840992 18.2868 -0.643383 17.3797 0.304968Z" fill="#333333"/>
<path d="M46.2846 41.4964C46.0784 39.7234 44.7178 38.4864 42.9035 38.4039C40.9656 38.2802 39.6049 40.0532 39.4812 41.8262C39.3575 43.7642 41.1305 45.1249 42.9035 45.2486C44.7178 45.331 46.0372 43.8054 46.2846 42.1561C46.3258 42.0737 46.3258 41.95 46.3258 41.8675C46.3258 41.7026 46.2846 41.5789 46.2846 41.4964ZM41.5428 41.785C41.4604 40.0533 44.1405 40.0533 44.223 41.785C44.1405 43.5168 41.6665 43.5168 41.5428 41.785Z" fill="#333333"/>
<path d="M28.3621 64.5518L28.3621 47.8278L42.8455 56.1898L28.3621 64.5518Z" fill="#E64A26"/>
</svg>
