<?xml version="1.0" encoding="UTF-8"?>
<svg xmlns="http://www.w3.org/2000/svg" width="41" height="38" viewBox="0 0 41 38" fill="none">
  <path d="M35.6364 17.1429C32.2727 17.1429 30.5909 12 25.5455 12C20.5 12 20.5 15.4286 20.5 15.4286C20.5 15.4286 20.5 12 15.4545 12C10.4091 12 8.72727 17.1429 5.36364 17.1429C3.68182 17.1429 2 15.4286 2 15.4286C2 15.4286 3.68182 24 10.4091 24C18.8182 24 20.5 18.8571 20.5 18.8571C20.5 18.8571 22.1818 24 30.5909 24C37.3182 24 39 15.4286 39 15.4286C39 15.4286 37.3182 17.1429 35.6364 17.1429Z" fill="#E64A26"></path>
  <path d="M27 26L21.1346 34.7229C20.7308 35.3234 19.8425 35.3094 19.4578 34.6964L14 26" stroke="#252525" stroke-width="4.5"></path>
  <path d="M7.79518 13L2.87009 4.50141C2.48375 3.83474 2.96478 3 3.7353 3H37.2647C38.0352 3 38.5163 3.83474 38.1299 4.50141L33.2048 13" stroke="#252525" stroke-width="4.5"></path>
</svg>
