<svg width="73" height="69" viewBox="0 0 73 69" fill="none" xmlns="http://www.w3.org/2000/svg">
<g id="icon">
<path id="Polygon 3" d="M70.2054 12.2317L57.2322 25.205L52.4836 7.48315L70.2054 12.2317Z" fill="#E64A26"/>
<g id="icon_2">
<path id="Vector" d="M24.5178 62.6894C24.0042 62.6894 23.4538 62.6894 22.9402 62.6894C22.4265 62.6894 22.0229 63.093 22.0229 63.6066C22.0229 64.1203 22.4265 64.5239 22.9402 64.5239C23.4538 64.5239 24.0042 64.5239 24.5178 64.5239C25.0315 64.5239 25.4351 64.1203 25.4351 63.6066C25.4351 63.4232 25.3617 63.2397 25.2883 63.093C25.1049 62.8728 24.8481 62.6894 24.5178 62.6894Z" fill="#333333"/>
<path id="Vector_2" d="M20.1517 62.6894C18.6841 62.6894 17.2165 62.6894 15.7122 62.6894C16.0424 61.3318 16.3726 60.011 16.7028 58.6535C16.923 57.6629 17.1798 56.6723 17.3999 55.7183C17.6935 54.5809 15.8957 54.0673 15.6388 55.2414C15.4921 55.8651 15.3453 56.5255 15.1619 57.1492C14.7216 59.0204 14.2813 60.8549 13.841 62.7261C12.2634 62.7261 10.6857 62.7261 9.07138 62.7261C9.21814 62.139 9.3649 61.5153 9.51166 60.9283C9.65842 60.3412 9.29152 59.9376 8.85124 59.8276C8.41097 59.7175 7.89731 59.8643 7.75055 60.4513C7.49372 61.4419 7.27359 62.4325 7.01676 63.4232C6.87 64.0102 7.27359 64.5972 7.89732 64.5972C11.9699 64.5972 16.0424 64.5972 20.115 64.5972C20.702 64.5972 20.9955 64.1203 20.9955 63.68C20.9955 63.2397 20.7387 62.6894 20.1517 62.6894Z" fill="#333333"/>
<path id="Vector_3" d="M9.62221 58.6535C9.87904 58.5801 10.1359 58.3967 10.2093 58.0298C10.4661 57.0024 10.7229 55.9751 10.943 54.9478C10.9797 54.8011 11.0164 54.6543 11.0531 54.5076C11.1999 53.9205 10.833 53.5169 10.3927 53.4069C9.95242 53.2968 9.43877 53.4435 9.29201 54.0306C8.99849 55.2047 8.74167 56.3787 8.44815 57.5895C8.30139 58.1765 8.66828 58.5801 9.10856 58.6902H9.14525C9.3287 58.6902 9.47545 58.6902 9.62221 58.6535Z" fill="#333333"/>
<path id="Vector_4" d="M11.7497 51.6091C12.3 49.2609 12.8871 46.9128 13.4374 44.5647C14.1345 44.5647 14.7949 44.5647 15.5287 44.5647C18.0603 44.5647 20.5919 44.5647 23.0868 44.5647C23.417 44.5647 23.7839 44.5647 24.1141 44.5647C24.9947 44.5647 25.8385 44.5647 26.7191 44.5647C28.8838 44.5647 31.0118 44.5647 33.1765 44.5647C33.47 45.8488 33.8002 47.0963 34.0937 48.3804C34.0937 48.4171 34.1304 48.4538 34.1304 48.4905C34.2772 49.0775 34.7908 49.2243 35.2311 49.1142C35.6714 49.0041 36.0383 48.6005 35.8915 48.0135C35.598 46.8394 35.3412 45.6654 35.0477 44.4913C39.0101 43.9776 41.1748 39.7216 39.7439 35.9426C39.5238 35.3556 38.8634 35.2088 38.4231 35.3922C38.0562 35.539 37.7994 35.9059 37.9461 36.3462C37.9461 36.3829 37.9461 36.3829 37.9461 36.4196C38.8634 38.8411 38.1296 41.5561 35.5246 42.51C35.4512 42.5467 35.3412 42.5834 35.2678 42.5834C35.8181 41.5928 36.1116 40.6022 36.2217 39.4281C36.2951 38.5109 36.2217 37.6303 36.185 36.7498C36.1483 36.126 36.1483 35.5023 36.2584 34.8419C36.2584 34.8052 36.2584 34.7685 36.2584 34.7318C36.2951 34.7685 36.3685 34.7685 36.4052 34.8052C36.6253 34.9153 36.8454 35.062 37.0289 35.2088C37.4325 35.539 37.9461 35.4656 38.2763 35.2088C38.6799 34.8786 38.8267 34.3282 38.3497 33.9247C37.4692 33.1909 36.5152 32.7873 35.5613 32.5671C35.5613 32.3837 35.5613 32.2002 35.5613 32.0168C35.5613 28.3111 35.5613 24.6422 35.5613 20.9365C38.0195 20.4228 39.5605 18.4783 40.0008 16.2035C40.1108 16.0201 40.1475 15.7999 40.0741 15.5798C40.1842 14.4057 40.0374 13.1583 39.5238 12.0209C39.267 11.4339 38.6799 11.4339 38.2763 11.7641C38.2397 11.8008 38.203 11.8375 38.1296 11.8741C37.8728 12.131 37.7627 12.5346 37.9094 12.9381C38.1663 13.5619 38.313 14.2223 38.313 14.8827C37.8728 14.7726 37.2857 14.4424 37.0656 14.4057C36.5886 14.259 36.0383 14.369 35.5613 14.4057C33.3966 14.6259 33.5067 12.1677 33.6534 10.6634C34.534 10.6634 35.3779 10.7735 36.2217 11.177C36.6253 11.3605 37.0289 11.2504 37.2857 10.9936C37.3224 10.9569 37.3591 10.9202 37.3958 10.8468C37.6893 10.4432 37.726 9.85621 37.139 9.5627C36.4419 9.23249 35.7448 9.04904 35.0477 8.93897C34.4239 6.7009 33.1398 4.68296 31.4154 3.06862C28.1133 0.0233705 23.2703 -0.747111 19.0876 0.720477C18.5006 0.903926 18.3538 1.49096 18.5006 1.96792C18.6474 2.37151 19.0143 2.70172 19.5646 2.51827C20.2617 2.29813 20.9588 2.11469 21.6192 2.00462C21.4725 2.7751 21.3257 3.5089 21.1056 4.24269C20.8121 5.23331 19.8581 5.6002 19.0876 6.15055C18.5373 6.55414 18.1704 7.0311 17.8769 7.61814C17.8035 7.80158 17.6934 7.98503 17.62 8.13179C17.51 8.38862 17.3999 8.64545 17.2532 8.8289C16.6661 8.8289 16.0791 8.8289 15.4553 8.8289C14.7949 8.8289 14.0978 8.8289 13.4374 8.8289C13.5475 8.4987 13.6576 8.13179 13.8043 7.80158C14.0244 7.28793 13.8043 6.81097 13.4374 6.55414C13.0338 6.29731 12.4835 6.29731 12.2267 6.84765C11.9331 7.50807 11.713 8.20517 11.5296 8.86558C11.3461 8.90227 11.1627 8.90228 10.9792 8.93897C7.27355 9.48931 5.76928 13.6353 6.61314 16.8639C7.16349 18.9919 8.96128 20.3495 11.0159 20.8264C11.0159 23.2113 11.0159 25.5961 11.0159 27.9809C11.0159 28.568 11.4929 28.8615 11.9331 28.8615C12.0799 28.8615 12.2267 28.8248 12.3734 28.7514C12.6302 28.6046 12.8504 28.3478 12.8504 27.9809C12.8504 27.7241 12.8504 27.4673 12.8504 27.2104C14.3547 27.8342 15.4187 28.8615 16.7395 29.8888C17.2531 30.2557 18.0603 30.3658 18.6474 30.4391C20.0416 30.5859 20.9221 31.1362 21.6926 32.3103C21.1789 32.3103 20.702 32.3103 20.1883 32.3103C17.7668 32.3103 15.3453 32.3103 12.8871 32.3103C12.8504 31.7233 12.8137 31.1362 12.8137 30.5492C12.8137 29.9622 12.3367 29.6686 11.8965 29.6686C11.4562 29.6686 10.9792 29.9622 10.9792 30.5492C10.9792 31.2096 10.9792 31.8333 11.0526 32.4571C7.60375 33.1909 5.73258 36.7131 6.57645 40.272C6.72321 40.8957 7.31024 41.0425 7.7872 40.859C8.19079 40.7122 8.48431 40.3087 8.33755 39.795C8.22748 39.2814 8.1541 38.7677 8.19079 38.254C8.30086 38.3641 8.44762 38.5109 8.63107 38.5842C9.36487 39.0245 10.0987 39.1713 10.7591 39.8317C10.9792 40.0518 10.8691 40.4554 10.8691 40.7122C10.8324 41.2993 10.9425 41.8863 11.0526 42.4367C10.5022 42.2899 9.98859 42.0331 9.54832 41.6662C9.14473 41.336 8.63106 41.4094 8.30086 41.6662C7.89727 41.9964 7.75052 42.5467 8.22748 42.9503C9.2548 43.7942 10.3555 44.1611 11.4929 44.3445C10.9425 46.5826 10.4289 48.784 9.87852 51.0221C9.73176 51.6091 10.0987 52.0127 10.5389 52.1227C11.0893 52.3429 11.6029 52.1961 11.7497 51.6091ZM11.1627 37.8138C10.7958 37.5569 10.4656 37.3368 10.0253 37.19C9.43824 36.9699 9.25479 36.603 8.92459 36.126C9.29148 35.539 9.84182 35.0253 10.5022 34.6585C10.5756 34.7318 10.6123 34.8052 10.7224 34.8786C11.5296 35.4656 12.4101 35.7591 13.3273 36.0893C13.9878 36.3095 14.4647 36.6397 15.0151 37.0066C15.382 37.2634 16.1158 37.4102 16.3726 37.7771C16.9229 38.5109 16.9229 39.5749 17.62 40.2353C18.3905 40.9691 19.6013 41.2626 19.7114 42.4367C19.7114 42.5467 19.748 42.6568 19.7847 42.7302C18.5373 42.7302 17.2531 42.7302 16.0057 42.7302C15.0518 42.7302 14.0245 42.8036 12.9971 42.7669C12.9971 42.6568 12.9971 42.5467 12.9605 42.4C12.6302 41.3727 12.9971 40.1252 12.4835 39.1713C12.2267 38.5842 11.713 38.1807 11.1627 37.8138ZM27.6363 7.25124C27.4529 6.44407 26.9025 5.74697 26.609 4.97648C26.3155 4.16931 26.2788 3.21537 26.1687 2.33482C27.8565 2.81179 29.4341 3.72903 30.755 5.04986C30.755 5.12324 30.7916 5.23331 30.8283 5.30669C31.3787 6.37069 31.5254 7.69152 31.7089 8.90228C30.4247 8.90228 29.1406 8.90228 27.8932 8.90228C27.8198 8.35193 27.7464 7.80158 27.6363 7.25124ZM11.8598 12.6813C11.0893 12.9015 10.4289 13.0115 9.80514 13.4885C9.25479 13.8921 9.07134 14.7359 8.30086 14.8093C8.33755 13.195 9.2181 11.5806 11.0526 10.9202C11.9331 10.59 13.1072 10.6267 14.1712 10.6634C13.4007 11.3972 12.9605 12.3878 11.8598 12.6813ZM9.98858 16.1301C10.649 15.4697 10.7958 14.8827 11.7864 14.5892C12.7403 14.2957 13.4007 14.1489 14.1345 13.4885C14.4647 13.195 14.8316 12.6079 15.1251 12.2777C15.6388 11.6907 16.6294 11.5439 17.3632 11.2871C17.6567 11.177 17.9869 10.9936 18.3171 10.7735C21.0689 10.7735 23.7839 10.7735 26.5356 10.7735C26.609 10.9936 26.6824 11.2504 26.7925 11.5072C27.4529 13.0115 27.7097 14.1122 27.7097 15.7633C27.7097 16.6805 28.0766 17.4877 28.5536 18.2581C28.737 18.5884 28.8838 18.9552 28.9939 19.3221C28.2601 19.3221 27.4896 19.3221 26.7558 19.3221C26.6457 19.3221 26.5723 19.3221 26.4623 19.3221C27.4529 16.1668 24.7745 12.6446 21.5458 12.6446C20.8487 12.5712 20.4451 12.7914 19.9315 13.2317C19.7114 13.4151 19.4912 13.8187 19.3078 14.0755C18.9042 14.6626 17.9136 14.4057 17.3632 14.5525C16.4093 14.846 15.6021 15.323 14.7582 15.91C14.1712 16.3136 13.254 16.6438 13.0338 17.4143C12.8871 18.0013 13.1439 18.6984 13.1072 19.3221V19.3588C12.8871 19.3588 12.7036 19.3588 12.4835 19.3588C10.5389 19.3588 9.18142 18.2215 8.63107 16.7539C9.10804 16.6071 9.62169 16.497 9.98858 16.1301ZM21.5825 42.4367C21.4725 41.446 21.2523 40.6756 20.4818 40.0151C20.1516 39.7216 19.748 39.5382 19.3811 39.318C19.3445 39.2813 19.3078 39.2447 19.2344 39.208C18.8675 38.9145 18.6474 38.5109 18.5006 38.0706C18.3905 37.8138 18.3172 37.5202 18.1704 37.2634C17.2898 35.4289 15.1985 34.9153 13.4007 34.1815C13.4374 34.1815 13.4741 34.1815 13.4741 34.1815C16.0791 34.1815 18.684 34.1815 21.289 34.1815C21.7293 34.1815 22.1696 34.1815 22.5732 34.1815C22.9767 35.1721 23.3069 36.1627 23.7839 37.1167C23.8206 37.2267 23.894 37.3368 23.9307 37.4469C24.2242 38.0339 24.4076 38.5842 24.5544 39.1713C24.8112 40.3453 24.7745 41.4827 24.7745 42.7302C23.7105 42.7302 22.6465 42.7302 21.5825 42.7302C21.5825 42.6568 21.6192 42.5467 21.5825 42.4367ZM18.4639 28.6413C17.3999 28.4946 16.5193 27.2838 15.6388 26.6234C14.9417 26.1098 14.0978 25.7429 13.2907 25.4493C13.1439 25.4126 13.0338 25.376 12.8871 25.3393C12.8871 25.0824 12.8871 24.8623 12.8871 24.6055C12.8871 23.4314 12.8871 22.2573 12.8871 21.0833C13.0338 21.0833 13.1806 21.0833 13.3273 21.0833C13.4007 21.1933 13.4741 21.2667 13.5475 21.3768C14.1712 21.9271 14.7582 22.1106 15.5654 22.2573C16.2992 22.3674 16.8129 22.3674 17.4366 22.9544C17.9136 23.3947 18.2438 24.0184 18.8308 24.3853C20.225 25.3026 21.9861 24.7155 23.4904 24.4954C24.0774 24.422 24.6278 23.6515 24.8112 23.1746C25.1047 22.4775 25.3249 21.817 25.6184 21.1566C26.2054 21.1566 26.7925 21.1566 27.3795 21.1566C28.0399 21.1566 28.6636 21.1566 29.3241 21.1566C29.3607 21.2667 29.3607 21.3768 29.3974 21.4868C29.8744 23.5415 31.7823 23.9084 33.5434 24.422C33.6168 24.422 33.6534 24.4587 33.6901 24.4587C33.6901 25.5227 33.6901 26.5867 33.6901 27.614C33.5801 27.5773 33.4333 27.5773 33.2865 27.614C31.1952 27.9442 30.7916 26.5133 29.7276 25.1925C29.1773 24.5688 28.4802 24.0551 27.5996 24.2019C25.3249 24.6055 25.2148 26.8802 25.4716 28.7881C25.6551 29.9989 26.4989 30.9528 27.086 31.9801C27.1594 32.1269 27.2327 32.2736 27.2694 32.4204C26.1321 32.4204 24.958 32.4204 23.8206 32.4204C23.6738 32.1269 23.5271 31.8333 23.3436 31.5398C22.0962 29.5219 20.6653 28.9715 18.4639 28.6413ZM15.6388 17.4143C16.1158 17.1208 16.556 16.8273 17.033 16.5337C17.8402 16.0935 18.5006 16.387 19.2711 16.1301C19.7847 15.9467 20.0416 15.7633 20.4818 15.433C20.8487 15.1395 20.8854 14.369 21.5091 14.4424C22.8667 14.4424 23.5638 14.9928 24.2242 16.1668C24.9213 17.3776 24.7012 18.2948 24.2976 19.2855C21.1789 19.2855 18.0236 19.2855 14.905 19.2855C14.9417 18.8819 14.9784 18.4416 14.8683 18.038C14.8683 18.0013 14.8683 17.9646 14.8683 17.9279C15.1251 17.7445 15.382 17.5977 15.6388 17.4143ZM19.5646 22.5508C19.0876 22.1106 18.7574 21.4502 18.1704 21.12C18.1704 21.12 18.1337 21.1199 18.1337 21.0833C19.9315 21.0833 21.7293 21.0833 23.5271 21.0833C23.4537 21.3034 23.417 21.5235 23.3803 21.7437C23.1602 22.6609 22.3897 22.6609 21.6192 22.8077C20.7387 22.9911 20.2984 23.248 19.5646 22.5508ZM33.6901 22.5142C32.6995 22.2573 31.6722 22.184 31.1952 21.12C32.0391 21.12 32.8463 21.12 33.6901 21.12C33.6901 21.5602 33.6901 22.0372 33.6901 22.5142ZM26.609 42.7302C26.609 41.4094 26.6824 40.0518 26.3889 38.7677C26.2788 38.3274 26.1687 37.9238 25.9853 37.4836C25.8752 37.2267 25.7652 37.0066 25.6918 36.7498C25.3249 35.9059 24.9947 35.0253 24.6278 34.1815C25.6551 34.1815 26.6824 34.1815 27.7097 34.1815C27.7464 34.3282 27.7831 34.5117 27.8198 34.6585C27.9665 35.2088 28.1133 35.7591 28.2601 36.3095C28.3334 36.6397 28.4435 36.9699 28.5169 37.3001C28.5536 37.4469 28.6636 37.8138 28.8104 38.2907C29.2507 39.7583 29.9478 42.2532 29.7276 42.7302C28.6636 42.7302 27.6363 42.7302 26.609 42.7302ZM31.1585 40.382C31.0118 39.5749 30.7916 38.731 30.6082 37.9238C30.4247 37.2634 30.278 36.6397 30.0945 35.9793C29.9111 35.3922 29.7643 34.8052 29.6176 34.2182C29.9111 34.2182 30.2413 34.2182 30.5348 34.2182C31.7823 34.2182 33.1765 34.0714 34.4973 34.2549C34.4239 34.5851 34.3872 34.8786 34.3872 35.2088C34.3505 35.8692 34.3138 36.4929 34.3505 37.1533C34.3505 39.0245 34.4239 40.859 33.1765 42.5467C33.1398 42.6201 33.1031 42.6568 33.0664 42.7302C32.5527 42.7302 32.0024 42.7302 31.4887 42.7302C31.4887 41.9597 31.3053 41.0425 31.1585 40.382ZM31.0852 32.3837C30.4247 32.3837 29.7643 32.3837 29.1039 32.3837C28.8471 31.5031 28.5169 30.696 27.9298 29.8521C27.4162 29.1183 27.2327 28.4212 27.1594 27.5406C27.086 26.6234 27.7464 25.486 28.5169 26.6234C29.9111 28.6413 31.1219 29.7053 33.6901 29.3384C33.6901 30.3291 33.6901 31.3197 33.6901 32.3103C33.6901 32.347 33.6901 32.347 33.6901 32.3837C32.8463 32.347 31.9657 32.3837 31.0852 32.3837ZM35.2311 16.3136C36.185 16.4237 36.7354 16.2035 37.6893 16.6805C37.7994 16.7172 37.8728 16.7539 37.9461 16.7906C37.5059 17.8179 36.6987 18.6617 35.5246 19.102C34.8642 19.3588 34.0937 19.2855 33.3966 19.2855C32.5161 19.2855 31.6722 19.2855 30.7916 19.2855C30.755 18.9919 30.7183 18.7351 30.6449 18.4783C30.3881 17.451 29.6176 16.8273 29.5075 15.7266C29.3974 14.6626 29.5442 13.6719 29.2874 12.6079C29.1406 11.9475 28.7737 11.3238 28.4435 10.7368C29.5809 10.7368 30.755 10.7368 31.8923 10.7368C31.8923 12.0576 31.6722 13.2683 32.3326 14.5892C32.883 15.6899 34.0937 16.1668 35.2311 16.3136ZM21.2156 7.0311C22.83 6.04048 23.0501 4.16931 23.417 2.51827C23.4537 2.29813 23.417 2.07799 23.3436 1.93123C23.6371 1.93123 23.9674 1.93123 24.2609 1.96792C24.5177 3.14199 24.5544 4.31607 24.8479 5.49014C25.068 6.48076 25.7285 7.25124 25.9853 8.24187C26.0587 8.462 26.0954 8.68214 26.132 8.90228C25.3616 8.90228 24.6278 8.90228 23.8573 8.90228C22.4264 8.90228 20.9588 8.90228 19.5279 8.90228C19.8948 8.16848 20.3351 7.58144 21.2156 7.0311Z" fill="#333333"/>
<path id="Vector_5" d="M15.0523 5.93041C15.2725 5.63689 15.5293 5.34338 15.8228 5.04986C16.2631 4.57289 16.7401 4.16931 17.2904 3.80241C17.694 3.5089 17.8775 2.99524 17.6206 2.55497C17.6206 2.55497 17.6206 2.51827 17.5839 2.51827C17.3271 2.15138 16.7401 1.93124 16.3365 2.22476C15.2358 3.03193 14.2819 3.91248 13.4747 5.01317C13.1812 5.38007 13.4013 5.96711 13.7315 6.22394C13.7682 6.22394 13.7682 6.26063 13.7682 6.26063C14.2819 6.51746 14.7588 6.29731 15.0523 5.93041Z" fill="#333333"/>
<path id="Vector_6" d="M18.7576 50.0314C19.0511 48.894 17.2533 48.3804 16.9965 49.5545C16.7029 50.8019 16.4094 52.0494 16.0792 53.3335C15.9691 53.7371 16.1159 54.0306 16.3727 54.2507C16.813 54.6176 17.5468 54.581 17.8036 53.9572C17.8036 53.9205 17.8403 53.8838 17.8403 53.8105C18.1705 52.5263 18.464 51.2789 18.7576 50.0314Z" fill="#333333"/>
<path id="Vector_7" d="M4.55875 5.52685C5.40262 6.37071 6.68675 5.04989 5.84289 4.24271C5.4393 3.83913 5.03572 3.43553 4.59544 2.99525C4.99903 2.59167 5.40262 2.18808 5.84289 1.74781C6.68675 0.903943 5.36593 -0.380197 4.55875 0.463666C4.15517 0.867253 3.75158 1.27084 3.3113 1.71111C2.90772 1.30753 2.50412 0.903943 2.06385 0.463666C1.21998 -0.380197 -0.0641567 0.940632 0.779706 1.74781C1.18329 2.15139 1.58689 2.55498 2.02717 2.99525C1.62358 3.39884 1.21998 3.80244 0.779706 4.24271C-0.0641567 5.08658 1.25667 6.37071 2.06385 5.52685C2.46743 5.12326 2.87103 4.71967 3.3113 4.27939C3.71489 4.71967 4.11848 5.12326 4.55875 5.52685Z" fill="#333333"/>
<path id="Vector_8" d="M49.8337 42.0698C49.8337 41.9597 49.8337 41.8863 49.797 41.813C49.6136 40.2353 48.4028 39.1346 46.7885 39.0612C45.0641 38.9512 43.8533 40.5288 43.7432 42.1065C43.6332 43.8309 45.2108 45.0417 46.7885 45.1517C48.4028 45.2251 49.5769 43.8676 49.797 42.4C49.8337 42.2532 49.8337 42.1432 49.8337 42.0698ZM45.6144 42.0698C45.541 40.5288 47.9259 40.5288 47.9992 42.0698C47.9259 43.6107 45.6878 43.6107 45.6144 42.0698Z" fill="#333333"/>
<path id="Vector_9" d="M48.1093 56.5255C45.908 55.5349 43.7066 53.9939 42.239 52.0127C40.9915 50.2883 40.2577 48.2336 39.4873 46.2524C39.1204 45.3718 38.0564 45.3718 37.7262 46.2524C37.2492 47.4265 36.7722 48.6005 36.2219 49.7746C36.0017 49.4811 35.6348 49.4077 35.3046 49.5178C34.8644 49.6278 34.4975 50.0314 34.6442 50.6185C34.7543 51.0954 34.8644 51.5724 34.9744 52.0494C33.5802 54.0306 31.3055 55.5716 29.1408 56.5255C29.1408 56.5255 29.1408 56.5255 29.1041 56.5622C28.8839 55.6816 28.6638 54.7644 28.4437 53.8838C28.1502 52.7465 26.389 53.2234 26.6826 54.3608C27.1962 56.5255 27.7099 58.6902 28.2602 60.8549C28.407 61.4786 28.5537 62.0656 28.7005 62.6894C28.5537 62.6894 28.4437 62.6894 28.2969 62.6894C27.8566 62.6894 27.3797 62.6894 26.9394 62.6894C26.3524 62.6894 26.0588 63.1663 26.0588 63.6066C26.0588 64.0469 26.3524 64.5239 26.9394 64.5239C29.9846 64.5239 33.0666 64.5239 36.1118 64.5239C36.7355 65.7713 37.2125 67.0921 37.7262 68.3396C38.0931 69.2201 39.1571 69.2201 39.4873 68.3396C40.2211 66.5051 40.9549 64.7073 41.9822 63.0196C43.303 60.8182 45.7979 59.1305 48.1093 58.1032C48.6964 57.8463 48.6964 56.7823 48.1093 56.5255ZM30.2415 58.6902C31.0119 59.1305 31.7457 59.6074 32.4428 60.1211C33.3968 60.8182 34.314 59.2405 33.3601 58.5434C32.7731 58.1032 32.186 57.6996 31.5623 57.3327C33.3601 56.3054 35.0845 54.9478 36.2586 53.3335C37.2492 51.976 37.9463 50.4717 38.6067 48.9307C39.1937 50.3249 39.8175 51.6825 40.6613 52.9299C41.8354 54.691 43.6699 56.1953 45.6144 57.296C43.8166 58.3233 42.1289 59.6808 40.9548 61.2585C39.9642 62.616 39.2671 64.1203 38.6067 65.6612C37.7995 63.7534 36.919 61.8822 35.5248 60.3779C34.7176 59.4974 33.4335 60.8182 34.2406 61.6621C34.5342 61.9556 34.791 62.2858 35.0111 62.6527C33.5435 62.6527 32.0393 62.6527 30.5717 62.6527C30.2781 61.3685 29.9479 60.1211 29.6544 58.837C29.6177 58.6535 29.5444 58.4334 29.5077 58.2499C29.7645 58.4334 30.0213 58.5434 30.2415 58.6902Z" fill="#333333"/>
</g>
</g>
</svg>
