<svg width="80" height="70" viewBox="0 0 80 70" fill="none" xmlns="http://www.w3.org/2000/svg">
<path d="M19.119 24.5718C19.0362 24.696 18.9949 24.8615 18.9949 25.0684C18.9949 25.8959 18.9949 26.7235 18.9949 27.551C18.9949 28.213 19.5328 28.5441 20.0707 28.5441C20.5672 28.5441 21.0637 28.213 21.0637 27.551C21.0224 26.7235 21.0224 25.8959 21.0637 25.0684C21.0637 24.4063 20.5672 24.0753 20.0707 24.0753C19.6983 24.0753 19.3259 24.2408 19.119 24.5718Z" fill="#333333"/>
<path d="M12.706 54.2808C12.4991 53.7429 12.3336 53.205 12.1681 52.667C12.1267 52.5843 12.1267 52.5015 12.0853 52.4188C11.9198 51.8809 11.3819 51.5499 10.8026 51.7154C10.2647 51.8809 9.93371 52.4602 10.0992 52.9981C10.3061 53.6187 10.513 54.2394 10.7199 54.8601C10.9268 55.398 11.4233 55.729 12.0026 55.5635C12.044 55.5635 12.044 55.5221 12.0853 55.5221C12.5405 55.3566 12.8715 54.7773 12.706 54.2808Z" fill="#333333"/>
<path d="M10.7189 18.4894C10.9672 17.2481 11.2155 16.0481 11.5051 14.8482C11.5879 14.5585 11.5465 14.3103 11.4223 14.1034C11.2982 13.8551 11.05 13.6482 10.7603 13.6069C10.2638 13.4827 9.6845 13.6482 9.51899 14.3103C9.22935 15.5102 8.93971 16.7515 8.73282 17.9515C8.60869 18.6135 9.06384 19.0687 9.56037 19.1928C10.0569 19.3583 10.5948 19.1514 10.7189 18.4894Z" fill="#333333"/>
<path d="M46.0971 19.6066C45.3523 19.6066 44.6075 19.6066 43.8627 19.6066C43.2006 19.6066 42.8696 20.1445 42.8696 20.641C42.8696 21.1375 43.2006 21.6754 43.8627 21.6754C44.6075 21.6754 45.3523 21.6754 46.0971 21.6754C46.7591 21.6754 47.0901 21.1375 47.0901 20.641C47.0901 20.1445 46.7591 19.6066 46.0971 19.6066Z" fill="#333333"/>
<path d="M60.9929 19.6066C59.3378 19.6066 57.6414 19.6066 55.9863 19.6066C53.545 19.6066 51.1038 19.6066 48.6625 19.6066C48.0005 19.6066 47.6694 20.1445 47.6694 20.641C47.6694 21.1375 48.0005 21.6754 48.6625 21.6754C52.7588 21.6754 56.8966 21.6754 60.9929 21.6754C61.655 21.6754 61.986 21.1375 61.986 20.641C61.986 20.1445 61.655 19.6066 60.9929 19.6066Z" fill="#333333"/>
<path d="M74.3573 7.85545C71.8747 7.27617 68.8955 7.73132 66.3715 7.73132C65.7095 7.73132 65.3785 8.26923 65.3785 8.76576C65.3785 9.22091 65.6267 9.63468 66.1232 9.75881C66.206 9.75881 66.2888 9.80019 66.3715 9.80019C68.399 9.80019 70.4265 9.80019 72.454 9.80019C76.7572 9.80019 79.5709 14.4344 76.5917 17.9929C74.8539 20.0618 71.9161 19.6066 69.5576 19.6066C67.5715 19.6066 65.5853 19.6066 63.5992 19.6066C63.5165 19.6066 63.4337 19.6066 63.351 19.6066C62.6889 19.6066 62.3579 20.1445 62.3579 20.641C62.3579 21.1376 62.6889 21.6755 63.351 21.6755C66.0405 21.6755 68.73 21.6755 71.4195 21.6755C74.8539 21.6755 77.9158 20.8066 79.4467 17.4136C81.226 13.3586 78.4951 8.84851 74.3573 7.85545Z" fill="#333333"/>
<path d="M60.9102 9.80013C61.7791 9.80013 62.6894 9.80013 63.5583 9.80013C63.6411 9.80013 63.7652 9.80013 63.848 9.75875C64.3445 9.63462 64.5928 9.22085 64.5928 8.7657C64.5928 8.22779 64.2617 7.73126 63.5997 7.73126C62.7308 7.73126 61.8205 7.73126 60.9516 7.73126C60.2895 7.73126 59.9585 8.26917 59.9585 8.7657C59.9585 9.26222 60.2068 9.80013 60.9102 9.80013Z" fill="#333333"/>
<path d="M41.0073 19.6066C39.6005 19.6066 38.1937 19.6066 36.7868 19.6066C33.3525 19.6066 31.0768 16.586 31.9043 13.3172C32.856 9.42775 37.0351 9.80015 40.097 9.80015C46.1795 9.80015 52.262 9.80015 58.3444 9.80015C59.0065 9.80015 59.3375 9.26224 59.3375 8.76571C59.3375 8.26919 59.0065 7.73128 58.3444 7.73128C51.3517 7.73128 44.3589 7.73128 37.4075 7.73128C37.2006 7.73128 37.0351 7.73128 36.8282 7.73128C36.7455 7.73128 36.7041 7.73128 36.6213 7.73128C33.4767 7.73128 30.3734 7.73128 27.2287 7.73128C26.7735 7.73128 26.3184 7.73128 25.8632 7.73128C25.8632 7.6899 25.9046 7.64852 25.9046 7.60714C26.5667 4.71073 25.4081 2.3936 22.5944 0.821265C18.1257 -1.70275 14.8155 2.0212 12.7053 6.15894C12.4156 6.69684 12.1673 7.23474 11.9605 7.77265C9.64333 7.77265 7.28482 7.77265 4.9677 7.77265C3.35398 7.64852 2.23679 6.57271 2.07128 5.00038C2.07128 4.959 2.07128 4.91761 2.07128 4.87624C1.98853 3.55216 -0.0803372 3.55216 0.00241743 4.87624C0.167927 7.60714 1.98853 9.46913 4.63668 9.80015C4.71943 9.84152 4.80219 9.84151 4.92632 9.84151C4.9677 9.84151 4.96769 9.84151 5.00907 9.84151C7.07794 9.84151 9.10543 9.84151 11.1743 9.84151C10.8433 10.7104 10.595 11.538 10.3881 12.2414C10.2226 12.8207 10.5123 13.2345 10.926 13.4C11.2157 13.5241 11.5881 13.5241 11.8777 13.4C11.9605 13.4 12.0846 13.3586 12.1673 13.3172C12.9535 13.0276 14.1121 13.6069 14.981 13.4C15.8499 13.2345 16.2223 12.2828 16.4292 11.4552C16.9671 11.8276 17.6292 12.0345 18.2498 12.0759C18.3326 12.0759 18.4567 12.0759 18.5395 12.0759C18.3326 13.2345 18.1671 14.4344 17.174 15.1378C16.4292 15.6757 15.643 16.0067 15.0224 16.6688C14.2776 17.4549 13.9466 18.5721 13.4914 19.5238C13.0363 20.4341 11.9191 20.8479 11.2984 21.5927C10.926 22.0478 10.5536 23.6202 9.97435 23.7857C10.0571 22.9167 10.1812 22.0478 10.3054 21.1789C10.3881 20.5169 9.97435 20.0617 9.47782 19.9376C8.9813 19.7721 8.44339 19.979 8.31926 20.641C6.91243 30.4474 6.99518 40.5849 9.35369 50.2672C9.5192 50.9292 10.0985 51.0947 10.595 50.9706C11.0915 50.8464 11.5053 50.3499 11.3398 49.7293C11.1329 48.9431 10.9674 48.1155 10.8019 47.3294C10.7605 47.2052 10.7605 47.0811 10.7191 46.9156L10.4295 46.4191C11.8777 46.4191 13.4914 50.0603 13.7397 51.0533C13.8638 51.5912 13.988 52.1291 14.1121 52.6257C14.1121 52.667 14.1535 52.7084 14.1535 52.7498C14.5672 54.3221 15.1051 55.6462 16.5947 56.722C17.7533 57.5496 18.7463 57.922 19.5739 59.2047C20.3187 60.3632 20.7738 61.6873 21.0635 63.0527C21.2704 64.0872 21.3117 65.2871 21.56 66.4043C20.8566 65.9905 20.1945 65.5354 19.6153 65.0802C16.8844 62.8458 15.0638 59.7012 13.6156 56.5565C13.3259 55.9772 12.788 55.8945 12.3329 56.1427C11.8777 56.391 11.5467 56.9703 11.8363 57.5909C14.5259 63.5493 20.9393 72.1144 28.6355 69.218C32.3595 67.8525 33.2284 63.3424 32.2353 59.9081C31.6147 57.7978 30.2906 55.8945 29.1734 54.0325C27.8494 51.8395 26.7322 49.5224 25.7391 47.1639C25.4908 46.5432 24.9116 46.5018 24.4564 46.7501C24.0013 46.9983 23.6702 47.5776 23.9599 48.1983C24.2495 48.8189 24.5392 49.4396 24.8288 50.0603C24.2495 48.9431 23.5047 47.9086 22.3462 47.3707C21.4359 46.957 20.4842 47.1639 19.7808 46.2122C19.0774 45.3019 18.5395 44.2674 17.7947 43.3571C17.505 42.9847 17.1326 42.6951 16.7602 42.4055C16.512 42.1986 16.2223 41.9917 15.9327 41.7848C14.6914 40.9159 14.1948 40.5849 13.6156 39.0953C13.119 37.854 12.6225 36.985 11.9191 36.2816C11.4226 35.7851 10.8019 35.3713 9.97435 34.9162C9.80884 34.8334 9.64333 34.792 9.5192 34.792C9.47782 32.6818 9.5192 30.5302 9.64333 28.4199C9.68471 27.551 9.76746 26.7235 9.85022 25.8545C9.89159 25.8545 9.93297 25.8545 10.0157 25.8545C10.6778 25.7718 11.1329 25.5235 11.5053 25.2339C12.457 24.4063 12.788 22.9581 14.0293 22.0892C14.8569 21.5099 15.312 20.6824 15.7258 19.8134C15.7672 19.6893 15.8086 19.6066 15.8913 19.4824C16.0982 19.0273 16.3051 18.6963 16.5533 18.4066C17.2154 17.6618 18.0843 17.3308 18.9118 16.5033C19.7808 15.6343 20.1945 14.724 20.4428 13.5655C20.6497 12.6138 20.8152 11.7863 21.3117 10.9587C21.6428 10.3794 22.222 10.0484 22.5944 9.5105C23.9185 7.56577 22.6772 5.3314 22.5944 3.17978C22.8427 3.38666 23.1323 3.59354 23.3806 3.8418C25.8219 6.15893 22.5944 10.4622 21.6841 12.8207C20.6497 15.4688 20.029 18.2825 19.6566 21.0961C19.6153 21.1375 19.5325 21.2203 19.4911 21.303C19.1187 21.8409 18.6636 22.0892 18.2084 22.3375C18.0016 22.4202 17.836 22.503 17.6292 22.5857C17.2981 22.7512 16.9671 22.9167 16.6775 23.165C16.0982 23.7029 15.7258 24.4891 15.3948 25.2753C15.2706 25.5649 15.1051 25.8545 14.9396 26.1442C14.4431 26.9717 13.7811 27.3441 13.9052 28.3786C13.988 29.1647 13.988 29.9923 14.1121 30.8198C14.1948 31.275 14.2776 31.7301 14.4845 32.1853C14.8983 33.1783 15.6017 34.3783 16.5533 34.9989C17.1326 35.3713 17.3809 35.3299 17.2568 36.0747C17.2154 36.1989 17.2154 36.323 17.2154 36.4058C17.174 36.8195 17.2568 37.2333 17.4223 37.6471C18.0843 39.7159 19.4498 39.6746 20.9807 39.3435C21.1876 40.1711 21.4359 40.9573 21.6841 41.7848C22.0979 43.1089 22.5117 44.4329 23.0082 45.7156C23.2565 46.3363 23.8771 46.5018 24.3737 46.3777C24.8702 46.2536 25.2426 45.7984 24.9943 45.1777C23.2565 40.5435 21.9738 35.7437 21.4359 30.8198C21.3531 30.1578 20.8152 29.8268 20.3187 29.8268C19.7808 29.8268 19.2842 30.1578 19.367 30.8198C19.5739 32.7232 19.8635 34.5852 20.2359 36.4058C20.3187 36.7368 20.4014 37.1092 20.4842 37.4402C19.7808 37.6471 19.0774 37.6884 19.2842 36.4058C19.2842 36.323 19.3256 36.2402 19.3256 36.1161C19.4498 35.6196 19.5739 34.9989 19.2842 34.5024C18.9532 33.9645 18.4567 33.6749 17.9188 33.3852C17.0085 32.8887 16.4706 31.8129 16.2637 30.7784C16.181 30.4474 16.1396 30.1164 16.1396 29.8268C16.0982 29.082 15.8499 28.2958 16.3465 27.7165C16.9257 27.0959 17.2568 26.2269 17.6705 25.4821C18.0429 24.7374 18.3739 24.6132 18.9532 24.365C19.0774 24.3236 19.2015 24.2408 19.3256 24.1994C19.5325 24.1167 19.7394 23.9926 19.9049 23.8684C20.029 23.9512 20.1532 23.9926 20.2773 23.9926C20.8566 24.0753 21.5186 23.7443 21.56 22.9995C21.7669 20.4341 22.2634 17.9515 22.9668 15.4688C23.5461 13.5241 24.4978 11.7449 25.284 9.88289C27.5183 9.88289 29.7113 9.88289 31.9457 9.88289C30.3734 11.3725 29.5458 13.5655 29.9182 16.2136C30.332 19.1514 33.1043 21.3444 35.9179 21.7168C37.6144 21.9651 39.435 21.7996 41.1728 21.7996C41.8349 21.7996 42.1659 21.2617 42.1659 20.7651C42.1659 20.2686 41.6694 19.6066 41.0073 19.6066ZM13.8224 11.3725C13.4087 11.3311 12.9949 11.207 12.5811 11.1656L13.0363 10.5036C13.9879 7.89678 15.5189 4.71073 17.4636 3.1384C17.2981 3.71768 17.174 4.29695 17.0085 4.87624C16.9257 5.24863 16.7602 5.57965 16.5533 5.91067C15.6017 6.48995 14.981 7.60715 14.8983 8.76571C14.8983 8.80709 14.8983 8.80708 14.8983 8.84846C14.7327 9.88289 14.4017 11.4552 13.8224 11.3725ZM17.0499 8.76571C16.9671 7.23475 19.367 7.23475 19.4498 8.76571C19.367 10.2967 17.1326 10.2967 17.0499 8.76571ZM24.1254 67.4387C24.084 67.3974 24.084 67.3146 24.0426 67.2732C22.8841 65.494 23.1737 62.6804 22.5117 60.6942C21.56 57.8806 20.029 56.3496 17.5878 54.9014C16.843 54.4463 16.4292 53.6187 16.1809 52.7084C15.9741 51.9636 15.8499 51.1361 15.6844 50.474C15.4362 49.2741 14.8983 48.281 14.1948 47.288C13.988 46.9983 13.7811 46.7087 13.4914 46.3777C12.6225 45.3433 11.4639 44.3502 10.2226 44.3502C9.85022 41.9503 9.60196 39.5091 9.47782 37.1092C9.60196 37.1506 9.72609 37.2333 9.80884 37.3161C10.2226 37.5643 10.5536 37.8126 10.8847 38.3505C11.3812 39.178 11.6294 40.1297 12.0432 40.9986C12.2501 41.4952 12.5397 41.8262 12.788 42.1572C13.0363 42.4055 13.2845 42.6537 13.5742 42.8606C14.1121 43.233 14.7327 43.6054 15.3948 44.1433C15.4775 44.2261 15.6017 44.3088 15.6844 44.3916C16.4706 45.1777 17.0085 46.3363 17.6705 47.288C18.0429 47.8259 18.4567 48.3224 19.036 48.6121C19.6566 48.9431 20.2773 49.1086 20.9807 49.2327C21.1462 49.2741 21.2704 49.3155 21.3945 49.3568C22.4703 49.8534 23.0082 51.3016 23.3806 52.2946C24.2495 54.9428 24.6633 57.7564 25.4495 60.446C26.1943 62.8872 26.4425 65.2044 26.4425 67.7284C25.6977 67.7284 24.9116 67.6456 24.1254 67.4387ZM28.5114 56.9703C30.2079 59.8253 31.9457 64.7906 28.5114 66.9008C28.47 64.8733 28.3045 62.97 27.808 60.9425C27.0218 57.8392 26.4011 54.6531 25.4081 51.6326C25.2426 51.2188 25.0771 50.8051 24.9116 50.3913C25.9874 52.667 27.2287 54.8187 28.5114 56.9703ZM20.6911 5.78654C20.8152 6.24169 20.898 6.61409 20.9393 6.98648C20.4842 6.32444 19.8635 5.8693 19.036 5.66242C19.367 4.58661 19.5325 3.46941 19.9049 2.43498C19.9463 2.35222 19.9463 2.31085 19.9463 2.22809C20.1532 2.22809 20.3187 2.22809 20.5256 2.26947C20.4842 2.3936 20.4428 2.51773 20.4428 2.64186C20.3187 3.71767 20.4428 4.71073 20.6911 5.78654Z" fill="#333333"/>
<path d="M65.7093 11.4552C65.5438 11.3311 65.3369 11.2484 65.0886 11.2484C64.8404 11.2484 64.6335 11.2484 64.3852 11.2484C60.4957 11.2484 56.5649 11.2484 52.6754 11.2484C51.3514 11.2484 51.3514 13.3172 52.6754 13.3172C56.358 13.3172 59.9992 13.3172 63.6818 13.3172C64.1783 13.3172 64.6335 13.3172 65.13 13.3172C65.1714 13.3172 65.2541 13.3172 65.2955 13.3172C66.1644 13.1517 66.2886 11.9518 65.7093 11.4552Z" fill="#333333"/>
<path d="M46.5936 13.3172C47.7936 13.3172 48.9935 13.3172 50.1521 13.3172C51.4762 13.3172 51.4762 11.2484 50.1521 11.2484C48.9521 11.2484 47.7522 11.2484 46.5936 11.2484C45.2696 11.2484 45.2696 13.3172 46.5936 13.3172Z" fill="#333333"/>
<path d="M43.9449 11.2484C42.2484 11.2484 40.5933 11.2484 38.8969 11.2484C37.5728 11.2484 37.5728 13.3172 38.8969 13.3172C40.5933 13.3172 42.2484 13.3172 43.9449 13.3172C45.3103 13.3172 45.3103 11.2484 43.9449 11.2484Z" fill="#333333"/>
<path d="M44.6897 32.806C45.1448 32.3508 45.6 31.8957 46.0965 31.3991C46.5516 31.8543 47.0068 32.3094 47.5033 32.806C48.455 33.7576 49.9032 32.268 48.9515 31.3577C48.4964 30.9026 48.0412 30.4474 47.5447 29.9509C47.9998 29.4958 48.455 29.0406 48.9515 28.5441C49.9032 27.5924 48.4136 26.1442 47.5033 27.0959C47.0482 27.551 46.593 28.0062 46.0965 28.5027C45.6413 28.0476 45.1862 27.5924 44.6897 27.0959C43.738 26.1442 42.2898 27.6338 43.2415 28.5441C43.6966 28.9992 44.1518 29.4544 44.6483 29.9509C44.1931 30.4061 43.738 30.8612 43.2415 31.3577C42.2898 32.268 43.7794 33.7576 44.6897 32.806Z" fill="#333333"/>
<path d="M60.2062 55.3152C62.0268 55.398 63.3509 53.867 63.5991 52.2119C63.6405 52.1292 63.6405 52.005 63.6405 51.9223C63.6405 51.7981 63.6405 51.7154 63.5991 51.6326C63.3923 49.8534 62.0268 48.6121 60.2062 48.5293C58.2615 48.4052 56.896 50.1844 56.7719 51.9637C56.6891 53.8256 58.427 55.2325 60.2062 55.3152ZM61.5717 51.8809C61.4889 53.6187 58.9649 53.6187 58.8821 51.8809C58.758 50.1431 61.4475 50.1844 61.5717 51.8809Z" fill="#333333"/>
<path d="M65.4825 43.4826L49.3284 39.1541L61.154 27.3285L65.4825 43.4826Z" fill="#E64A26"/>
</svg>
